<?xml version="1.0" encoding="UTF-8"?>
<svg version="1.1" viewBox="0 0 1387 2048" width="500" height="738" xmlns="http://www.w3.org/2000/svg">
<path transform="translate(1158)" d="m0 0h6l11 8 23 15 44 29 14 10 1 1v397l6 2 20 10 19 10 9 5v74l-6 2-92 19-5 1-7 12 11-5 7 1 30 13 34 15 30 13 12 6 11 27 12 31 2 4-1 4-14 15-7 8-9 10-7 8-18 20-13 10-14 10-6 4 1 11 10 3 88 34 9 4 2 6 6 59-1 5-22 14-19 12-15 9-31 14-9 4 1 16 1 33 1 6 21 6 64 17 18 5 1 11-1 36v20l-9 3-86 20-8 1v27l-2 45 46 18 19 12 27 18 8 6-1 9-10 50-7 2-54 5h-12l-29-5-1 13-6 37-1 6 8 7 16 12 14 11 12 12 9 11 10 11 9 11 2 2v7l-14 57-1 1h-27l-62-2-11-1-2 10-3 9 1 7 11 13 11 14 10 12 7 14 12 29 11 26-2 6-15 26-10 17-5 5-76 3h-24l18 30 4 11 11 48 3 13-1 7-7 7-9 11-10 11-6 7 1 4 5 11 1 8-2 10-4 8-9 10-12 9-16 8-19 7-24 6-28 4-7 4-13 10-17 13-12 9-14 2-85 9-5 22-2 9-7 3-33 10-12 3-58 8-9 1h-43l-4-8-43 4-59 6h-19l-40-7-4-9-10-30-23 2-67 7-8 1-23-11-17-8-2-2-4-69v-12l-30 3-69 6-5-1v-2l-4-2-7-7-8-7-10-9v-38l1-29 14-37-57 2-13 1-7 6-14 8-19 7-21 5-25 3h-33l-25-3-21-5-19-7-14-8-11-11-4-9v-13l5-10 9-9 14-8 14-6h2l1-273-8-1-6-3-7-26-7-28 1-4 13-17 10-13 4-6v-107l-35-9-4-2-1-61 4-4 18-11 19-12 32-20 6-2 2-4 4-5 1-3 1-19 1-2-2 1-71 7-6-5-1-6 3-5 8-5 22-11 19-10 11-6-19-4-25-13-22-12-6-4 4-44 2-15 5-2 48-9h9l30 4 1-17 6-46-22-12-23-12-8-6-10-9-12-11-5-5 2-11 13-50 1-1 21-1h19l29 10 1 1v250l8-5 1-91 20-4 31-5h7l1 1v69l11-6h2v-66l4-2 42-7h6v48l13-7 1-44 35-6 18-3h7v22l12-6 1-18 6-2 46-8 20-9 23-4 35-5v-60l-5-5-6-9-2-6v-13l4-11-14-33-10-25v-24l9-3 50-11 3 1 16 38 3 8 8 2 3 1-18-43-3-9 6-2 25-5 6 13 17 41 19 45 16 38 11 26v2h10l22 3 25 6 23 8 23 11 21 13 1 4-4 11 8 2 3-9 11-26 15-37 16-38 15-37 18-43 15-37 16-38 11-28 4-2 29-6h4l9 16 1 4-12 27-11 26-14 33-19 45-17 40-19 45-23 54-9 21 9 1 1-5 11-26 18-43 17-40 38-90 17-40 16-38h2l4 9v2h7l-4-10-14-28-2-5 57-13 143-32 26-6 9 3 37 18 23 11 6 2 26-6 64-13-4-3-41-20-24-11-16-8-9-3-39 9-683 154-36 8h-2v-67l2-2 25-6v-30l-16-8-29-14v154l-9 3-67 14h-3v-152l9-3 62-16 1-1 1-12-21 6-47 12h-5v-157l10-4 52-16 10-3 1-12-34 10-29 9-6 2h-4v-154l30-11 42-15 1-12-57 20-14 5h-2v-150l13-6 46-19 19-8 5 2 22 11 19 10 60 31 29 15 23 12 33 17 2 2 1 122 13 7 1-74 12-5 109-39 9-3 6-1h17l14 3 14 5 19 10 17 10 23 13 12 9 7 10 4 9 2 9 1 10v165l-2 14-5 10-9 9-15 8-15 5-53 15-5 2-1 68 19-5 62-15 34-8 2-1v-406l4-3 62-22 10-4h5l19 12 72 45 3 2v-94l38-14 39-14zm4 15v423l9-1 24-6h7l39 20 5 3h2v-384l-11-8-16-10-26-17-25-16-6-4zm-742 34v143l41 20 13 6h2v-141l-22-12-32-16zm64 33v140l4 3 19 9h5l2-2v-135l-18-10zm508 1m1 1 2 6 12 23 13 25 10 19 15 28 17 33 12 22 5 8h1v-112l-10-7-29-17-26-16-17-10zm-472 17v129l10-3 9-3 11 5v-113l-23-12-5-3zm38 20v112l29 15 14 7h2v-112l-24-12-15-8zm249 42 3 9v186l-2 12-6 12-6 7-14 7-60 20-7 3 4 3 36 16 32 14 47-14 19-6 13-7 11-10 6-12 1-4v-169l-3-14-7-13-8-8-45-25-12-7zm-388 43v157l15 7 25 12 6 3 1-135 24-9 1-2-28-13-29-14-13-6zm306 29-18 5-1 2 20 10 5 2v-17l-1-2zm-186 1v351l8-1 76-18 3-1v-288l-15-8-19-9-19-10-32-16zm166 14v88l18-5 7-4 1-2v-64l-19-10zm279 17v214l18-4 75-18 1-4-26-53-27-54-11-23-29-58zm-565 111v160l16 8 25 12 5 2v-160l-8-5-27-13-9-4zm286 47v123l47-11 28-7v-62l-4-10-7-6-19-9-36-15zm494 14v59l8 5 58 29 17 8 15 8h2v-58l-37-19-19-10-28-15-13-7zm-75 107-2 1v2l-4 2-9 10-17 17-7 8-8 8 1 5 12 28 10 26 5-2 18-13 34-24 21-9 7-9 10-14v-3l-16-8-25-12-28-13zm96 57 4 16 10 36 12 6 49 20 39 16 2-1-16-47-3-5-30-13-43-19-21-9zm-299 38-12 3-8 20-20 47-38 90-31 73 1 7 5 7h2l2 5 16 24 41 10 85 20 38 9 3-1-7-56-8-47-9-43-12-47-12-39-11-32-11-28-9-21zm311 22-24 26-7 8-3 3v2l-4 2-10 8-17 12-16 12-10 7v2l49 20 39 16 17 7 5-2 11-9 19-14 17-17 7-8 11-12 9-10 7-8v-2l-78-34zm-739 75-6 4-3 4-1 3v8l2 5h42l3-5v-8l-4-7-6-4zm45 15-1 12 9 5-3-9-4-8zm594 0 12 50 5 22 11-3 48-17 4-1 38-3-2-4-11-5-102-39zm-648 19-10 5-6 7-2 4v10l3 5 4 1 18-5 8-1h15l17 3 9 3h3l4-8v-7l-4-8-7-6-7-3zm72 23-3 10 1 6 21 53 9-1-1-6-15-36-11-26zm-57 12-1 1-1 8h-4l-1-6h-6l-5 3v65l10-1 1-12 6-1v11l12-1 21-3 2-1v-57l-9-4-12-2zm765 3v10l6 53 8 3 74 24 9 3h4v-14l-3-40-5-3-92-36zm-671 60-161 24-17 3-50 25-19 10-22 11-19 10-32 16-19 10-38 19-19 10-32 16-19 10-38 19-19 10-20 10-19 10-19 9v1h11l853-88 138-14 46-5 5-1-3-2-39-9-161-38-162-38-114-26-8-2zm669 11-31 21-13 8-16 6-27 9v2l21 7 40 12 34 10 6-1 39-16 17-10 17-11 7-5-1-2-43-14-41-14zm-461 5v1h14v-1zm365 50 4 46 2 26 55 1 39 8h3v-31l-1-19-3-3-68-20-27-8zm-142 64-10 2-8 11-10 16-18 27-11 18v1h9l4-1 12-19 21-32 7-11h2l10 14 56 76 10 14 1 4v391l2-1 11-30v-363l-14-19-39-54-14-19-13-18-5-7zm257 29v26l1 30 50 12 41 10h3l1-52-8-3-67-18-18-5zm-759 23-22 2-2 1v12l19 3 16 2v-20zm-39 4-2 1v7l10 2v-10zm-24 2 3 3 8 2v-5zm-25 3-40 4-5 3-4 6 2 5 8 4 8 3 1 3-6 2-2 3 8 5 14 4 6 1h18l3-5 9 1 4 1 6 1 2 2h5l-1-10 7 1 2 6 4 3 3-6 7-1h2l1 6 3-1h8l3 3 12-1 2-1v-2l9 1 1 9 9-1 5 2 1 2-3 5-2 9-1 5 5-1 3-4 3 1 2 4v3l-7 3-5 4-1 2v10l2 1 17-4 9-4 6-4 7-8 2-5v-19l-4-11-6-8-8-6-12-5-26-4-51-6-16-4-24-7zm574 11-26 2-4 2-5 9v2h10l24-2 4-2v-11zm-275-42-28 3-1 2 3 22v39l-4 25-6 22-9 22-8 15-12 17-12 13-5 5 2 4 16 16 4-4 6-8 7-7 14-7 13-2h6l19 45 16 38 17 40 12 29 38 90 20 48 19 45 18 43 6 12h2l4-7-3-9-12-28-12-29-19-45-15-36-18-43-19-45-15-36-19-45-1-6 11-13 9-13 2 3 24 56 23 54 39 91 23 54 18 42 4 8 4-5 1-7-23-54-13-30-23-54-13-30-23-54-13-30-20-47-2-5v-5l10-17 10-21 9-24 8-26-1-4-8 1-10 31-10 24-8 16-10 18-11 16-7 9-4 6-2 1-3-9-15-35-7-18 1-5 10-25 7-24 5-25 1-12 19-1 155-13 26-2 7-1 7-11v-1h-13l-191 16-15 1-2-4-6-9-4-9-2-10v-11l4-18v-3zm-488 50-32 4-1 1-1 17v78l2 41 3 36 5 43 6 37 9 45 11 43 12 39 11 30 12 29 13 28 12 23 13 22 16 24 14 19 9 11 11 13 12 13 16 16 8 7 17 14 20 14 18 11 23 12 20 9 20 7 24 7 26 5 24 3 15 1h28l19-2 24-5 24-8 24-11 14-8 21-14 14-11 14-12 15-14 15-16-1-2-14 14-11 9-14 11-21 14-17 10-25 12-30 10-25 5-20 2h-19l-20-2-26-5-20-6-16-6-26-12-27-16-18-13-14-11-15-13-5-4-5-5-7-8h-2l-1-3h-2l-2-4-4-4h-2l-2-6 12-30 15-37 9-22v-2l-6-2-6 12-17 42-14 34-1 1h-10l-8-4-9-9-7-11-4-10-1-4v-17l11-28 12-29-1-3-6-2-8 16-13 28-2 6-4-4-14-24-12-23-19-38-8-6-12-12-8-16-2-10v-13l3-11-1-10-9-32-9-39-6-34-5-40-3-40-1-21v-56h9l180-17 16-9 4-2v-1l-19 1-177 15h-12l-3-12-1-7v-22l1-14zm723 8-10 1-6 7-11 18-2 3v8h9l4-1v-6l8-14 9-14zm304 6-40 11-41 4-6 1 2 2 28 6 53 12h8l72-14 7-2-3-2-71-18zm-1156 2-14 17-5 7v11l-11 1-13 16-9 11-10 12-2 3-1 74 2 2 10 2 1-75 6-8 11-13 9-11 11-13 11-14 4-5h2l8 11 44 56v379l10 24 3 3v-409l-14-17-13-17-10-12-22-28-5-7zm397 18-14 1-1 1-1 12-5 1-1-13-10 1v58l-8 1-1 1v9l4 6 9 8 13 8 30 15 36 15 23 9h3l-1-5-8-12-5-6 5 3 8 9 9 14 4 3 16 6h2l-1-6-9-16-6-9 7 6 13 17 7 12 8 5 25 12 19 10 10 7h2l-3-9-10-19-11-16-9-11-4-5h-2l-2-4-3-1-2-4-13-11-14-10-15-9-21-10-24-8-23-5h-6v-54l-4-3zm661 4-4 68v5l7 2 76 13 11 2h4l2-25 1-26v-19l-12-3zm-165 1-43 4-13 1-1 3v62l2 225v27l2-1 13-42 11-42 9-41 8-46 6-43 4-40 2-25 1-20v-22zm-541 8-17 8-10 7 2 9-3 6-3 2-7-1-3-2-5 8v2l6 1 2 3-1 8-4 4-5 1-5-2 1 5 5 3h2l1-4 8-1 5 3 2 5-1 5-4 4-7-2-3-2-6 9 5 5 7 3 4 5 2 4 1 7 9 8 7 5 1-3 7 1 6 5 5 9 9 6 6 3-1-5-5-5-3-6-3-3-6-3-3-5 1-6 5-1 5 3 4 6 11 6 3 4v10l7 5 3 5 2 5 8 4 4-1v-3l-3-4v-6l3-3 9 1 2 7-1 5 9 5 4 4 3 7 4 2 4-6-2-8-2-4 1-6 1-1h6l4 4v14l8 7 3 9h5v-12l4-4 7 1 4 4v7l-3 8 4 4 5-5h9l7 4 4 10 16 8 7 2 1-1v-9l2-4 7-1 6 3 9 3v6l-6 4-6 5 5 5 5 3h3l2-6 3-2h9l3 4-1 7-4 4 2 4 5 1 3-2 7 1 3 4v7l-1 4 7 8 5 5 9 6 2-2h6l1 1v5l-9 3-5 2-1 5 3 3h2l-2 5-6 4-2 13 5-1 15-9 8-7 6-8 4-13 1-16-2-13-6-14-10-14-12-12-13-10-18-11-23-12-27-12-42-16-43-17-31-13-31-15-12-8-8-7-5-9-1-8 3-10 4-7 1-10-1-27zm464-1-58 5-3 1-6 24-8 23-9 20-8 16-10 17-11 16-12 15 1 5 13 31 23 53 13 31 13 30 48 112 2 3h2l16-38 3-10v-70l-1-106-1-178zm-529 41-55 4-6 1-1 3v29l1 25 1 9 7-6 7-8 8-7 15-12 17-11 9-5 4-22zm-81 6-3 1v58l3 28 1 5 3-1 7-11-1-18-1-14-1-48zm83 27-16 10-14 11-10 9-14 14-11 15-9 14-8 16-8 20-6 24-2 19v29l3-1 5-5 13-6 11-4 2-25 4-20 8-21 9-17 9-13 4-5-2 5-9 16-8 21-5 21-3 22v14l10-2 1-1 2-23 4-19 7-20 11-21 8-12-5 12-8 20-6 23-3 21-1 17 3 1 18-3 1-1 2-20 4-20 7-21 11-23 2-3-3 9-6 16-6 23-4 30v9l12-1 2-5 4-22 6-18 8-16v3l-7 24-3 19-1 13 2 1 24-2 3-5 1-10v-8l4-10 7-8 10-6 8-4 5-8 8-12-8-5-18-10-19-13-10-8-15-15-8-13-4-10-2-6zm830 13 4 4 16 12 20 16 17 3 60 9 2-1-11-8-18-11-14-7-34-12-36-5zm-1142 29-16 2 2 2 18 3h4l-1-7zm-29 11v93l5-2 26-17 12-8 1-1-1-15-4-38-2-7-17-3-14-2zm1212 0-5 44v9l1 1 84 11h5l2-8 7-40v-2l-35-6-56-9zm-119 46-2 6-6 34-6 27 1 5 96 9h7l5-25 4-25v-8l-53-10-21-6-22-7zm-600 9-8 8-6 12-1 3v16l3 3 5-2 9-17 11-15v-3l-12-5zm716 5-4 3v2l29 5 20-1-3-2-28-5zm-672 11-1 10-4 18 8 1 2-10 2-16-5-3zm16 7-1 1-1 7v12l1 3 2 1h6l2-7v-12l-4-4zm15 6 4 20 11 2 1-15-14-7zm24 12-1 11 12 3 17 4-5-5-15-10-5-3zm-594 0-6 4-4 3-1 50v50l5 1h7v-108zm484 13-2 1-2 14-6 11-9 11-3 4v2l11 1 6-9 8-10 5-6v-10l-4-9zm-112 1-15 1-1 1v12l2 21 1 4 6-2 9-5 5-5v-10l-3-9-1-7zm163 1-1 25-4 12v3l11-1 5-5 4-8 1-10-3-9-4-6zm-192 1-8 1v15l2 19 1 2 14 1-1-12-3-26zm-23 2-14 2 1 20 2 10 2 1 11 1h9l-3-30-1-4zm250 1-3 5-2 28 13-1 3-11 3-20-2-1zm23 2-3 13-3 16 21-3 21-5 10-5 1-2-5-5-11-4-26-5zm-300 0-7 2 2 20 2 5 10 1-3-28zm-17 3-16 5-7 4 1 4 6 4 18 5h2l-2-20zm813 6 4 4 22 14 21 13 13 11 25 25 1 2h2v2l8 2 58 3h18l-6-7-7-8-15-16-11-12-20-15-10-7-24-3-69-7zm-842 10 1 10 5 20 6 16 6 8 16 16 13 9 23 12 15 6 19 6 2-1-3-11 1-6 8-10v-11l-6-22-1-5v-10l-1-1h-11l4 17 8 22 1 3-6-10-8-19-5-14-1-1-16-2h-6l5 19 7 19 6 13-10-15-8-15-8-22-2-2-9-1 2 11 6 16 8 17 6 10-7-8-9-14-8-16-7-18-9-3-16-6-8-5zm395 2-8 5-13 5-24 6-12 2-2 1-6 17-10 21-9 13 1-3 8-17 6-18 2-7v-4h-9l-4 2-5 9-9 11-5 4 10-20v-4l-13 1-4 5-4 9-4 15-6 11-12 18-9 10-7 7-11 9-14 14-6 8v2h9l24-5 17-5 15-6 17-8 16-10 12-9 10-9 7-6 7-8 10-13 8-13 7-14 4-9-7 21-11 23-8 12-8 10-9 10-9 9-14 11-21 13-17 8-24 8-24 5-29 3h-5v-8l9-10 12-11 4-5 7-14 10-7 8-4 16-16 5-4 6-13 6-21 2-11-2-1-7 3-3 5-1 3-2 18-4 10-5 6-11 7-19 10-9 8-8 16-7 11-16 17-9 9h-9l-13-2 15-20 8-14 8-19 3-17 3-6 6-4 15-6 6-5 2-5 3-22h-13l-4 16-4 10-9 7-9 6-6 9-8 22-6 17-5 9-6 8-10 7-6 3-12-3-24-9-14-7-11-1 5 5 10 7 23 12 20 8 22 6 18 3 10 1h32l27-4 19-5 17-6 23-11 14-9 11-8 13-11 14-14 11-14 10-15 9-17 8-21 6-24v-5zm-404 19-7 8-1 5v7l-4 1v4l7 1 1 7-3 3-4 1 1 7 3 1 3-7 4-1 3 1v9h-2l-1 7v3l6-1 4-10 4 1 1 7-1 4 2 9 3 3 4 1h16l2 3 1 7 8 1 3-7 3 1 1 9 7 3 6-1 8-1 2 6 10-1 5-3 3 1 1 3 9 4h15l13-2 2-2-25-5-29-9-21-9-17-9-14-10-10-10-9-14-7-14-5-2v-6l1-4zm-176 8-15 10-24 15-7 4v1l8 1 48 2-1-8-6-25zm614 0-11 9-15 8-9 4-8 16-8 14-10 14-11 13-16 16-14 11-17 11-19 10-23 9-23 6-25 4-15 1-2 1-6 17-3 9-1 7v8l3 15 5 12 6 10 9 11 7 7 13 10 15 9 15 7 27 9 29 6 16 2 17 1h17l19-1 23-3 30-7 24-9 19-10 10-8 8-8 5-10 3-13v-14l-4-16-18-44-19-46-11-27-16-39-13-32zm215 32-4 10-7 19-1 7 1 107 1 186h2l7-8 5-7-3-314zm-890 7v267l25-4 11-1h31l21 2 8 1 7-15 3-6 1-6v-62h-70l-13-30-11-26 3-7 14-29 7-14 21-21 7-8 15-15-1-7-4-14-1-1zm1178 2-14 50 1 3 58 1h32l8-32 3-15-1-1-79-6zm-126 10-2 6v62l87 5h6l4-10 3-10v-4l-29-8-19-5-17-13-26-20-5-3zm-17 51-6 15 1 1h5l1-2v-14zm15 27v17l9 10 9 11 9 10 10 14 13 21 14 22h90l1-3-21-53-4-6-9-10-9-11-12-13-4-5-5-1-75-3zm-13 4-1 14v109l5 5 7 5h1v-121l-11-12zm-601 13-4 4-6 15-3 12-1 7v14l3 14 5 12 9 14 11 12 15 12 19 11 16 8 21 8 30 9 17 4 22 3h40l22-3 28-7 24-9 15-7 10-5-3-1-18 7-25 7-28 6-24 3-28 1-25-2-26-5-24-7-25-10-25-13-12-8-11-9-8-8-9-14-6-18-1-9v-10l3-17 6-18v-3zm-331 14-19 19-18 13-19 14v1l55-1 2-1 1-11v-17l-1-17zm15 15v30h15l-9-20-5-10zm867 33-15 27-16 27-4 6v2h37l34-1 13-1v-11l-19-19-7-8-8-8-7-8-6-6zm-867 7v35l4-4 11-18 7-11v-2zm1038 26-47 1-8 16-12 25v1h40l51-2 6-9 15-26 2-3v-3zm-1039 15-10 19-2 6v25l8 3 4 1 1-7v-47zm643 4m-33 12m330 3-9 1v122l61-3 1-1-1-10-11-51-4-10-13-21-16-26-1-1zm-58 2-46 2 8 15 10 19 13 23 8 17 12 39 3 8 24-1 2-1 1-98v-23zm-814 20-22 33-4 5 1 5 1 3v12l-1 5h16l34-1 17-1 2-3-1-5-8-9-11-14-15-20-7-10zm-159 9-25 4-23 7-16 8-10 9-5 8-1 9 3 8 7 8 10 7 15 7 21 6 18 3 10 1h41l23-3 17-4 17-6 11-6 9-7 6-9 1-3v-9l-4-8-5-6-14-9-12-5h-2v5l5 4 9 6 2 4v6l-3 5-10 6-15 5-14 3-15 2-27 1-23-1-22-3-17-5-12-6-5-6v-8l4-5 14-7 19-5 12-2 11-1h42l25 3 6 1 1-6-16-4-15-2zm16 12-23 2-20 4-13 5-6 5-2 5 5 1 15-4 12-2 13-1h18l32 3 7 2v3l-51 1-19 2-12 3-2 1v2l13 4 12 2 11 1h42l23-3 7-2v-28l-7-2-22-3-14-1zm76 11-1 17 2 1 7-5 1-6-5-5zm774 38v35l11-1 9-1 1-3-10-16-10-14zm-15 5-9 9-7 8-9 10v3h26v-30zm59 32-25 2-24 4-25 7-16 7-11 6-12 10-6 10-2 6 1 10 5 10 9 9 13 8 18 8 21 6 26 5 19 2h47l26-3 24-5 21-7 16-8 11-7 8-8 5-10 1-9-3-9-6-9-10-8-16-9-3-1v11l7 8 2 7-4-2-4-5h-2v19l-12 6-24 6-28 4-18 1h-31l-24-2-24-4-21-6-14-7-5-6-1-2v-7l4-6 10-6 12-5 20-5 30-4 17-1h28l25 2 20 3 17 4 5 1v-9l-7-3-22-5-23-3-16-1zm152-1-27 1-13 1-1 7 3 3 16 8 9 6 5 3 13-15 11-13v-1zm-57 2-4 2 6 1-1-3zm-173 3-7 2-6 5v2l6-2 13-5 1-2zm-564 9-13 28-5 10-11 14-14 18-1 2h10l82-8 2-2 5-21-2-4-18-12-14-10-13-10-6-5zm643 4-32 3-24 5-13 5-8 5-4 5 1 6 4 5 5-2 13-6 13-4 25-4 35-2 20 1 9 2 1 3-11 1-32 1-23 2-19 3-13 4-4 3 1 4 8 4 16 3 17 2h58l24-3 25-6 4-2v-26l-16-5-20-4-34-3zm-165 34-32 18-23 12 1 2 29-2 36-2-1-6-8-22zm-350 37-6 42-3 11-10 26-4 11 15-1 65-8 5-1 1-28v-34l-28-7-33-11zm351-1-59 3v8l6 37 1 64 16-1 76-8 6-1 4-16 2-13-13-22-11-18-8-18-5-14-1-1zm-148 22-24 3-31 2-8 1-1 46-1 16-10 35v4l38-4 61-7 6-1-1-5-13-29-4-12-5-36-2-13zm249 2 4 8 2 2 31-2-4-2-29-6zm74 13-60 5-8 1-17 13-13 9v1h11l53-4 12-2 13-9 17-12 1-2zm-177 78-47 4-11 8v1l14-1 28-4 22-7v-1z" fill="#6C1942"/>
<path transform="translate(844,602)" d="m0 0h4l-1 5-17 41-19 46-31 75-17 41-19 46-6 14h-3l-15-9-25-12-18-6-26-6-32-5-6-12-13-31-51-119 1-3 8-1 6 13 10 24 11-1 100-21 72-15 3-1 11-25 9-22 5-3zm-91 74-175 36 1 6 18 43 15 36 11 27 1 1 48 1 20 1 6-12 13-31 19-45 15-35 11-26v-2z" fill="#6C1A43"/>
<path transform="translate(743,916)" d="m0 0h7l223 51 52 12v2l-501 53h-8l1-2 40-20 19-10 45-23 19-10 36-18 19-10 35-18 12-6zm47 20 2 5 11 21 10 26 2 5 7-1-1-8-10-25-10-19-3-3zm-73 5-41 21 2 5 8 14 9 19 2 5 16-1 29-3-1-7-8-23-10-22-5-8zm139 10 7 20 5 16 17-1 74-8 7-1-1-2-58-13-48-11z" fill="#6C1A43"/>
<path transform="translate(285,976)" d="m0 0 9 1 177 52 23 7v1l-65 7-227 24-115 12-4-1 24-12 19-10 41-21 28-14 19-10 24-12 19-10 20-10zm-19 21-12 6v49h9l4-1 1-5v-49zm62 1v46h11l2-1v-41l-7-3zm93 27-1 1v8l2 1 21-3-1-2-16-4zm-220 5-12 6v23l13-1v-28z" fill="#6C1A43"/>
<path transform="translate(416,721)" d="m0 0h4v159l-6 2-69 11h-4v-156l51-11z" fill="#6C1942"/>
<path transform="translate(588,882)" d="m0 0h12l124 28 6 2-4 3-45 23-23 12-38 19-19 10-47 24-30 15h-2l2-6 18-40 12-28 24-54 3-6zm7 9-6 1 2 12-10 5 2 2 19 3 16 5 17 8 14 10 4 3 4-1 14-7-1-4-5-6-4-8-4-9-22-5-33-1-5-8z" fill="#6C1A43"/>
<path transform="translate(325,405)" d="m0 0h3v157l-13 4-44 11h-3v-154l8-3 42-13z" fill="#6C1942"/>
<path transform="translate(326,740)" d="m0 0 2 1v154l-13 3-43 7h-4l-1-139 1-13 6-2z" fill="#6C1942"/>
<path transform="translate(325,238)" d="m0 0 3 1v152l-9 4-49 15h-2l-1-135 1-17 38-13z" fill="#6C1942"/>
<path transform="translate(325,575)" d="m0 0h3v152l-16 4-38 8h-6l-1-134 1-15z" fill="#6C1942"/>
<path transform="translate(325,76)" d="m0 0h3v149l-16 6-42 15h-2l-1-126v-19l10-5 41-17z" fill="#6C1942"/>
<path transform="translate(187,447)" d="m0 0 2 1v149l-7 3-47 12h-5v-146l9-4 42-13z" fill="#6C1942"/>
<path transform="translate(184,770)" d="m0 0 5 1v146l-3 2-48 8h-8v-144l2-2 47-10z" fill="#6C1942"/>
<path transform="translate(186,287)" d="m0 0 3 1v145l-1 2-55 17h-3v-144l5-3 43-15z" fill="#6C1942"/>
<path transform="translate(185,611)" d="m0 0 4 1v143l-1 2-52 11h-6v-141l5-3z" fill="#6C1942"/>
<path transform="translate(185,134)" d="m0 0 4 1v138l-5 3-42 15-9 3h-3v-136l12-6 29-12z" fill="#6C1942"/>
<path transform="translate(250,428)" d="m0 0h4v153l-13 4-36 9h-3v-150l9-4z" fill="#6C1942"/>
<path transform="translate(250,756)" d="m0 0 4 1v150l-6 2-45 7-1-1v-148l5-2z" fill="#6C1942"/>
<path transform="translate(252,264)" d="m0 0 2 1v149l-10 4-40 12-2-1v-146l5-3 42-15z" fill="#6C1942"/>
<path transform="translate(248,595)" d="m0 0h6v147l-9 3-37 8h-6v-145l7-3z" fill="#6C1942"/>
<path transform="translate(420,907)" d="m0 0h5l14 24 15 26 16 27 12 21 11 19-3 1-65-19-123-36v-3l28-14 15-8 14-7 19-10 38-19zm0 14v73l26 8 25 7-1-4-11-20-28-48-9-15zm-81 38-11 7 2 2 11 3v-12z" fill="#6D1A43"/>
<path transform="translate(251,107)" d="m0 0h3v143l-5 3-28 10-16 6-3-1v-140l12-6z" fill="#6C1942"/>
<path transform="translate(562,886)" d="m0 0h7l-3 9-18 40-18 41-19 43-4 8-4-4-15-26-14-24-15-26-10-17-11-19-2-3v-3l31-5zm-29 14-33 5-1 1-1 61-5 1v-61h-8l-3 1v59l11 19 5 2 2 10 5 8 3-4 13-30 12-27 1-4v-41zm-66 10-14 2-2 2 15 26 5 7h1v-37z" fill="#6D1B43"/>
<path transform="translate(115,587)" d="m0 0 5 1 1 1v107l-7-6-13-14-7-11-5-8 3-10 19-50z" fill="#6C1A42"/>
<path transform="translate(52,1357)" d="m0 0h1v49l-1 50-12-3-3-2-7-26-7-28 1-4 13-17 10-13 3-5z" fill="#6D1B43"/>
<path transform="translate(621,1296)" d="m0 0 10 2 4 5 1 7-4 5h-8l-4-2-4-7 1-7z" fill="#6F1D45"/>
<path transform="translate(708,1358)" d="m0 0 5 1 6 8 2 5-3 5-3 2-5-1-4-5-2-6v-6z" fill="#6F1D46"/>
<path transform="translate(446,1218)" d="m0 0 6 1 5 4 2 4-1 7-1 1h-6l-6-5-1-2v-8z" fill="#6F1D45"/>
<path transform="translate(493,824)" d="m0 0h6v24h-6l-1-1v-22z" fill="#6C1A43"/>
<path transform="translate(443,1199)" d="m0 0 5 1 3 3 1 6-3 3-5-1-4-4v-5z" fill="#6E1D45"/>
<path transform="translate(704,1345)" d="m0 0 5 1 1 1v5l-5 4-4-1-2-3 1-4z" fill="#6D1B44"/>
<path transform="translate(411,1065)" d="m0 0 6 1 1 1v6l-6 2-4-2 1-7z" fill="#712149"/>
<path transform="translate(96,1120)" d="m0 0h2l1 11-1 1h-11l6-8z" fill="#772A50"/>
<path transform="translate(493,1133)" d="m0 0h6v10l-1 1h-5l-1-9z" fill="#74254C"/>
<path transform="translate(508,1246)" d="m0 0 5 2 2 2v5l-1 1-7-1-1-6z" fill="#72224A"/>
<path transform="translate(321,1467)" d="m0 0 6 2v6l-3 2-5-1v-7z" fill="#6C1942"/>
<path transform="translate(516,1092)" d="m0 0 5 1 2 3-1 5-5-1-4-4 1-3z" fill="#75274E"/>
<path transform="translate(495,1159)" d="m0 0 4 1v7l-5 1-2-3 1-5z" fill="#792E53"/>
<path transform="translate(493,1147)" d="m0 0h6v8l-5 1-2-6z" fill="#712149"/>
<path transform="translate(301,1425)" d="m0 0 4 1 1 1v6l-2 2-4-1v-8z" fill="#712149"/>
<path transform="translate(534,1249)" d="m0 0 6 1 1 5-2 2-5-1-1-1v-5z" fill="#6C1942"/>
<path transform="translate(568,1120)" d="m0 0h6l2 3-2 3h-7l-1-4z" fill="#75274D"/>
<path transform="translate(599,1282)" d="m0 0 5 1 2 2v4l-4 1-4-4z" fill="#72224A"/>
<path transform="translate(553,1118)" d="m0 0h6v4l-2 2h-5v-5z" fill="#6C1942"/>
<path transform="translate(551,1102)" d="m0 0 5 1 1 4-4 2-4-3z" fill="#7B3155"/>
<path transform="translate(498,1089)" d="m0 0h5l1 4-4 2-3-2z" fill="#702047"/>
<path transform="translate(332,1470)" d="m0 0 4 1v5l-4 1-1-1v-5z" fill="#7F375A"/>
<path transform="translate(476,1082)" d="m0 0 5 1v4h-7l1-4z" fill="#712048"/>
<path transform="translate(530,1088)" d="m0 0h5v4l-3 1-3-2z" fill="#6C1942"/>
<path transform="translate(428,1096)" d="m0 0h4v5h-4z" fill="#73244B"/>
<path transform="translate(650,1301)" d="m0 0 4 1-1 4-4-1z" fill="#73254B"/>
</svg>
